<svg width="266" height="63" viewBox="0 0 266 63" fill="none" xmlns="http://www.w3.org/2000/svg">
<path d="M20.2842 17.51C19.9599 19.2754 19.2393 20.6445 18.0504 21.6172C16.8614 22.59 15.4203 23.0944 13.7269 23.0944C11.4932 23.0944 9.79981 22.3378 8.61087 20.8246C7.42192 19.3114 6.80943 17.1497 6.80943 14.3755C6.80943 11.6012 7.42192 9.43952 8.61087 7.92632C9.79981 6.41311 11.5292 5.65651 13.7269 5.65651C15.3482 5.65651 16.7173 6.08886 17.8342 6.91752C18.9511 7.74618 19.7077 8.93512 20.1401 10.4844H26.7693C26.2649 7.13369 24.8238 4.53962 22.4099 2.70215C20.032 0.900718 17.1497 0 13.7269 0C9.51158 0 6.19694 1.29704 3.71096 3.85508C1.22498 6.44914 0 9.94392 0 14.3755C0 18.771 1.261 22.2658 3.78301 24.8598C6.30502 27.4539 9.61967 28.7509 13.7269 28.7509C17.2217 28.7509 20.2121 27.7781 22.626 25.7966C25.04 23.851 26.4451 21.0768 26.8414 17.51H20.2842Z" fill="white"/>
<path d="M46.7653 10.5204C44.8918 8.6469 42.3337 7.71014 39.1272 7.71014C35.9206 7.71014 33.3986 8.6469 31.4891 10.5204C29.5796 12.4299 28.6428 14.9879 28.6428 18.1585C28.6428 21.293 29.6156 23.851 31.4891 25.7605C33.3986 27.6701 35.9567 28.6068 39.1272 28.6068C42.2977 28.6068 44.8557 27.6701 46.7653 25.7605C48.6388 23.887 49.5755 21.365 49.5755 18.1585C49.5755 14.9519 48.6388 12.3939 46.7653 10.5204ZM42.3337 22.3018C41.5771 23.2745 40.5323 23.7429 39.1272 23.7429C37.7221 23.7429 36.6412 23.2745 35.8846 22.3018C35.128 21.365 34.7677 19.9599 34.7677 18.1224C34.7677 16.285 35.128 14.9159 35.8846 13.9431C36.6412 13.0064 37.7221 12.502 39.1272 12.502C40.5323 12.502 41.5771 12.9703 42.3337 13.9431C43.0903 14.9159 43.4506 16.285 43.4506 18.1224C43.4867 19.9599 43.0903 21.365 42.3337 22.3018Z" fill="white"/>
<path d="M64.8877 8.14249V19.2754C64.8877 20.6084 64.5274 21.6172 63.8069 22.3378C63.0863 23.0584 62.1856 23.4187 61.1047 23.4187C58.979 23.4187 57.8982 22.3018 57.8982 19.9959V8.10646H51.8453V21.1849C51.8453 23.5268 52.4578 25.3642 53.7188 26.6252C54.9798 27.8862 56.6372 28.5347 58.7629 28.5347C61.393 28.5347 63.4826 27.4539 65.0318 25.2561V28.0664H70.9045V8.10646H64.8877V8.14249Z" fill="white"/>
<path d="M91.585 9.58364C90.324 8.32263 88.6667 7.67412 86.541 7.67412C83.9109 7.67412 81.8212 8.791 80.272 10.9527V8.14249H74.3993V28.1024H80.4521V16.9695C80.4521 15.6365 80.8124 14.6277 81.533 13.9071C82.2536 13.1865 83.1543 12.8262 84.2351 12.8262C86.3969 12.8262 87.4417 13.9791 87.4417 16.249V28.1384H93.4945V15.06C93.4585 12.6821 92.846 10.8807 91.585 9.58364Z" fill="white"/>
<path d="M107.87 12.574V8.17852H104.051V2.26981H97.9981V8.17852H95.0077V12.574H97.9981V22.554C97.9981 24.6076 98.5385 26.0488 99.6554 26.9495C100.772 27.8502 102.574 28.2825 105.06 28.2825C106.213 28.2825 107.113 28.2465 107.834 28.1384V23.6348H106.321C105.456 23.6348 104.88 23.5268 104.555 23.2745C104.231 23.0223 104.051 22.59 104.051 21.9055V12.574H107.87Z" fill="white"/>
<path d="M123.759 0.576462V10.5564C122.39 8.6469 120.444 7.71014 117.922 7.71014C115.256 7.71014 113.13 8.6469 111.581 10.5204C109.996 12.3939 109.203 14.9519 109.203 18.1585C109.203 21.365 109.996 23.887 111.581 25.7966C113.13 27.6701 115.256 28.6068 117.922 28.6068C120.588 28.6068 122.57 27.598 123.903 25.5444V28.1384H129.775V0.576462H123.759ZM119.579 23.7429C116.733 23.7429 115.328 21.9415 115.328 18.3026C115.328 16.4291 115.688 15.024 116.445 14.0152C117.201 13.0064 118.246 12.538 119.579 12.538C122.426 12.538 123.867 14.4115 123.867 18.1585C123.903 21.8694 122.462 23.7429 119.579 23.7429Z" fill="white"/>
<path d="M150.6 10.5204C148.727 8.6469 146.168 7.71014 142.962 7.71014C139.755 7.71014 137.233 8.6469 135.324 10.5204C133.414 12.4299 132.478 14.9879 132.478 18.1585C132.478 21.293 133.45 23.851 135.324 25.7605C137.233 27.6701 139.791 28.6068 142.962 28.6068C146.132 28.6068 148.69 27.6701 150.6 25.7605C152.473 23.887 153.41 21.365 153.41 18.1585C153.41 14.9519 152.473 12.3939 150.6 10.5204ZM146.168 22.3018C145.412 23.2745 144.367 23.7429 142.962 23.7429C141.557 23.7429 140.476 23.2745 139.719 22.3018C138.963 21.365 138.602 19.9599 138.602 18.1224C138.602 16.285 138.963 14.9159 139.719 13.9431C140.476 13.0064 141.557 12.502 142.962 12.502C144.367 12.502 145.412 12.9703 146.168 13.9431C146.925 14.9159 147.285 16.285 147.285 18.1224C147.321 19.9599 146.925 21.365 146.168 22.3018Z" fill="white"/>
<path d="M180.108 8.14249L178.234 14.5556C177.585 16.7894 176.973 19.0592 176.361 21.293C175.856 19.2754 175.28 17.0056 174.631 14.5196L172.83 8.14249H167.245L165.444 14.5196C164.759 17.0056 164.183 19.2754 163.714 21.293C163.138 19.0592 162.489 16.7894 161.841 14.5556L159.967 8.14249H153.482L160.04 28.1024H166.381L168.578 20.6084C169.083 18.879 169.551 17.0776 170.019 15.2402C170.524 17.1497 171.028 18.9511 171.533 20.6084L173.73 28.1024H180.071L186.557 8.14249H180.108Z" fill="white"/>
<path d="M205.4 9.58364C204.139 8.32263 202.481 7.67412 200.356 7.67412C197.726 7.67412 195.636 8.791 194.087 10.9527V8.14249H188.214V28.1024H194.231V16.9695C194.231 15.6365 194.591 14.6277 195.312 13.9071C196.032 13.1865 196.933 12.8262 198.014 12.8262C200.176 12.8262 201.22 13.9791 201.22 16.249V28.1384H207.273V15.06C207.273 12.6821 206.661 10.8807 205.4 9.58364Z" fill="white"/>
<path d="M61.2127 49.0351C60.8885 50.8005 60.1679 52.1696 58.979 53.1424C57.79 54.1151 56.3489 54.6195 54.6555 54.6195C52.4218 54.6195 50.7284 53.8629 49.5394 52.3497C48.3505 50.8365 47.738 48.6748 47.738 45.9006C47.738 43.1264 48.3505 40.9647 49.5394 39.4515C50.7284 37.9382 52.4578 37.1816 54.6555 37.1816C56.2768 37.1816 57.6459 37.614 58.7628 38.4426C59.8797 39.2713 60.6363 40.4602 61.0686 42.0095H67.6979C67.1935 38.6588 65.7524 36.0648 63.3385 34.2273C60.9606 32.4259 58.0783 31.5251 54.6555 31.5251C50.4402 31.5251 47.1255 32.8222 44.6395 35.3802C42.1536 37.9743 40.9286 41.469 40.9286 45.9006C40.9286 50.2961 42.1896 53.7909 44.7116 56.3849C47.2336 58.979 50.5483 60.276 54.6555 60.276C58.1503 60.276 61.1407 59.3033 63.5546 57.3217C65.9685 55.3761 67.3737 52.6019 67.77 49.0351H61.2127Z" fill="white"/>
<path d="M87.6579 42.0095C85.7844 40.136 83.2263 39.1992 80.0198 39.1992C76.8132 39.1992 74.2912 40.136 72.3817 42.0095C70.4721 43.919 69.5354 46.477 69.5354 49.6476C69.5354 52.7821 70.5082 55.3401 72.3817 57.2496C74.2912 59.1591 76.8492 60.0959 80.0198 60.0959C83.1903 60.0959 85.7483 59.1591 87.6579 57.2496C89.5313 55.3761 90.4681 52.8541 90.4681 49.6476C90.5041 46.441 89.5674 43.919 87.6579 42.0095ZM83.2623 53.8269C82.5057 54.7997 81.4609 55.268 80.0558 55.268C78.6507 55.268 77.5698 54.7997 76.8132 53.8269C76.0566 52.8901 75.6963 51.485 75.6963 49.6476C75.6963 47.8101 76.0566 46.441 76.8132 45.4682C77.5698 44.5315 78.6507 44.0271 80.0558 44.0271C81.4609 44.0271 82.5057 44.4955 83.2623 45.4682C84.0189 46.441 84.3792 47.8101 84.3792 49.6476C84.3792 51.485 84.0189 52.8901 83.2623 53.8269Z" fill="white"/>
<path d="M105.78 39.6676V50.8005C105.78 52.1336 105.42 53.1424 104.699 53.8629C103.979 54.5835 103.078 54.9438 101.997 54.9438C99.8356 54.9438 98.7907 53.8269 98.7907 51.5211V39.6316H92.7739V52.71C92.7739 55.0519 93.3864 56.8893 94.6474 58.1503C95.9084 59.4113 97.5657 60.0599 99.6914 60.0599C102.322 60.0599 104.411 58.979 105.96 56.7813V59.5915H111.833V39.6676H105.78Z" fill="white"/>
<path d="M132.514 41.1088C131.253 39.8478 129.595 39.1992 127.47 39.1992C124.839 39.1992 122.75 40.3161 121.201 42.4778V39.6676H115.328V59.6275H121.381V48.4946C121.381 47.1616 121.741 46.1528 122.462 45.4322C123.182 44.7116 124.083 44.3513 125.164 44.3513C127.325 44.3513 128.37 45.5043 128.37 47.7741V59.6635H134.423V46.5851C134.387 44.2072 133.739 42.4058 132.514 41.1088Z" fill="white"/>
<path d="M148.763 44.0631V39.6676H144.943V33.7589H138.891V39.6676H135.9V44.0631H138.891V54.0431C138.891 56.0967 139.431 57.5378 140.548 58.4386C141.665 59.3393 143.466 59.7716 145.952 59.7716C147.105 59.7716 148.006 59.7356 148.727 59.6275V55.1239H147.177C146.313 55.1239 145.736 55.0159 145.412 54.7637C145.088 54.5115 144.907 54.0791 144.907 53.3945V44.0631H148.763Z" fill="white"/>
<path d="M149.555 46.2248V51.3049H161.228V46.2248H149.555Z" fill="white"/>
<path d="M177.153 39.6676V50.8005C177.153 52.1336 176.793 53.1424 176.072 53.8629C175.352 54.5835 174.451 54.9438 173.37 54.9438C171.244 54.9438 170.164 53.8269 170.164 51.5211V39.6316H164.111V52.71C164.111 55.0519 164.723 56.8893 165.984 58.1503C167.245 59.4113 168.903 60.0599 171.028 60.0599C173.658 60.0599 175.748 58.979 177.297 56.7813V59.5915H183.17V39.6676H177.153Z" fill="white"/>
<path d="M204.967 42.0095C203.382 40.136 201.256 39.1992 198.59 39.1992C195.924 39.1992 193.907 40.2441 192.537 42.3337V39.6676H186.665V62.8341H192.718V57.2136C194.087 59.1592 196.032 60.1319 198.59 60.1319C201.292 60.1319 203.418 59.1952 204.967 57.3217C206.517 55.4482 207.273 52.8901 207.273 49.6836C207.273 46.441 206.517 43.919 204.967 42.0095ZM200.067 53.7548C199.311 54.7636 198.266 55.232 196.933 55.232C194.087 55.232 192.645 53.3585 192.645 49.6115C192.645 45.8645 194.087 43.9911 196.933 43.9911C199.779 43.9911 201.184 45.7925 201.184 49.4314C201.184 51.3409 200.788 52.7821 200.067 53.7548Z" fill="white"/>
<path d="M29.9399 54.0791L34.3714 58.979H27.8502L26.4811 57.5018C24.4275 58.8709 22.1937 59.5555 19.7437 59.5555C16.9695 59.5555 14.7718 58.8709 13.1505 57.5018C11.5652 56.2048 10.7726 54.4394 10.7726 52.2777C10.7726 49.2513 12.4659 47.0175 15.8166 45.4682L15.7806 45.4322C14.9159 44.4594 14.3034 43.5947 13.9431 42.8381C13.5828 42.0815 13.4027 41.2529 13.4027 40.3882C13.4027 38.6228 14.0512 37.1456 15.3843 35.9927C16.6813 34.8398 18.4827 34.2633 20.7525 34.2633C22.9143 34.2633 24.7157 34.8037 26.0848 35.8486C27.4178 36.9294 28.1024 38.3706 28.1024 40.136C28.1024 42.8381 26.409 44.9638 23.0223 46.477L26.7693 50.5843C27.2737 49.5034 27.562 48.3145 27.634 46.9454H32.3898C32.2457 49.5755 31.4531 51.9534 29.9399 54.0791ZM17.4019 54.1512C18.1224 54.7997 19.0952 55.1239 20.2481 55.1239C21.4371 55.1239 22.554 54.8357 23.5988 54.2232L18.3746 48.3866C17.0055 49.2152 16.285 50.3321 16.285 51.7372C16.321 52.674 16.6813 53.4666 17.4019 54.1512ZM22.6981 38.875C22.0135 38.2265 21.1489 38.1184 20.104 38.4787C19.0592 38.839 18.5548 39.4514 18.6629 40.3522C18.6629 41.1808 19.2393 42.2617 20.3922 43.5587L20.5724 43.7389C22.4459 42.8021 23.3466 41.6852 23.3466 40.4242C23.3466 39.7757 23.1304 39.2713 22.6981 38.875Z" fill="white"/>
<path d="M238.798 7.53H258.506C262.649 7.53 266 10.8807 266 15.024V46.405V50.2961V51.9894C266 55.6283 263.406 58.6547 259.983 59.3393L241.212 59.4834H221.505C217.361 59.4834 214.011 56.1327 214.011 51.9894V23.3826V19.4915V15.024C214.011 11.3851 216.605 8.35867 220.027 7.67412L238.798 7.53Z" fill="#005DEB"/>
<path d="M241.212 59.5194V50.2961H232.926L250.58 19.7437L266 46.405V50.2961H259.983V59.3393L241.212 59.5194Z" fill="white"/>
<path d="M220.027 7.67412V19.4915H214.011V23.3826L229.431 50.0799L247.085 19.4915H238.798V7.53L220.027 7.67412Z" fill="white"/>
</svg>
