<svg width="21" height="20" viewBox="0 0 21 20" fill="none" xmlns="http://www.w3.org/2000/svg">
<path d="M3.41666 15.625C3.07499 15.625 2.79166 15.3417 2.79166 15V5.83332C2.79166 2.15832 3.90832 1.04166 7.58332 1.04166H13.4167C17.0917 1.04166 18.2083 2.15832 18.2083 5.83332V14.1667C18.2083 14.3 18.2083 14.425 18.2 14.5583C18.175 14.9 17.8667 15.1667 17.5333 15.1417C17.1917 15.1167 16.925 14.8167 16.95 14.475C16.9583 14.375 16.9583 14.2667 16.9583 14.1667V5.83332C16.9583 2.85832 16.4 2.29166 13.4167 2.29166H7.58332C4.59999 2.29166 4.04166 2.85832 4.04166 5.83332V15C4.04166 15.3417 3.75832 15.625 3.41666 15.625Z" fill="#262626"/>
<path d="M14.6667 18.9583H6.33332C4.38332 18.9583 2.79166 17.3667 2.79166 15.4167V14.875C2.79166 13.2167 4.14166 11.875 5.79166 11.875H17.5833C17.925 11.875 18.2083 12.1583 18.2083 12.5V15.4167C18.2083 17.3667 16.6167 18.9583 14.6667 18.9583ZM5.79166 13.125C4.82499 13.125 4.04166 13.9083 4.04166 14.875V15.4167C4.04166 16.6833 5.06666 17.7083 6.33332 17.7083H14.6667C15.9333 17.7083 16.9583 16.6833 16.9583 15.4167V13.125H5.79166Z" fill="#262626"/>
<path d="M13.8333 6.45834H7.16666C6.82499 6.45834 6.54166 6.17501 6.54166 5.83334C6.54166 5.49168 6.82499 5.20834 7.16666 5.20834H13.8333C14.175 5.20834 14.4583 5.49168 14.4583 5.83334C14.4583 6.17501 14.175 6.45834 13.8333 6.45834Z" fill="#262626"/>
<path d="M11.3333 9.375H7.16666C6.82499 9.375 6.54166 9.09167 6.54166 8.75C6.54166 8.40833 6.82499 8.125 7.16666 8.125H11.3333C11.675 8.125 11.9583 8.40833 11.9583 8.75C11.9583 9.09167 11.675 9.375 11.3333 9.375Z" fill="#262626"/>
</svg>
