<svg width="18" height="18" viewBox="0 0 18 18" fill="none" xmlns="http://www.w3.org/2000/svg">
<path d="M8.55 17.0625H5.7C2.4075 17.0625 0.9375 15.5925 0.9375 12.3V9.45C0.9375 6.1575 2.4075 4.6875 5.7 4.6875H7.95C8.2575 4.6875 8.5125 4.9425 8.5125 5.25C8.5125 5.5575 8.2575 5.8125 7.95 5.8125H5.7C3.015 5.8125 2.0625 6.765 2.0625 9.45V12.3C2.0625 14.985 3.015 15.9375 5.7 15.9375H8.55C11.235 15.9375 12.1875 14.985 12.1875 12.3V10.05C12.1875 9.7425 12.4425 9.4875 12.75 9.4875C13.0575 9.4875 13.3125 9.7425 13.3125 10.05V12.3C13.3125 15.5925 11.8425 17.0625 8.55 17.0625Z" fill="#787878"/>
<path d="M12.75 10.6125H10.35C8.24251 10.6125 7.38751 9.75751 7.38751 7.65001V5.25001C7.38751 5.02501 7.52251 4.81501 7.73251 4.73251C7.94251 4.64251 8.18251 4.69501 8.34751 4.85251L13.1475 9.65251C13.305 9.81001 13.3575 10.0575 13.2675 10.2675C13.185 10.4775 12.975 10.6125 12.75 10.6125ZM8.51251 6.60751V7.65001C8.51251 9.14251 8.85751 9.48751 10.35 9.48751H11.3925L8.51251 6.60751Z" fill="#787878"/>
<path d="M11.7 2.0625H8.70001C8.39251 2.0625 8.13751 1.8075 8.13751 1.5C8.13751 1.1925 8.39251 0.9375 8.70001 0.9375H11.7C12.0075 0.9375 12.2625 1.1925 12.2625 1.5C12.2625 1.8075 12.0075 2.0625 11.7 2.0625Z" fill="#787878"/>
<path d="M5.25 4.3125C4.9425 4.3125 4.6875 4.0575 4.6875 3.75C4.6875 2.1975 5.9475 0.9375 7.5 0.9375H9.465C9.7725 0.9375 10.0275 1.1925 10.0275 1.5C10.0275 1.8075 9.7725 2.0625 9.465 2.0625H7.5C6.57 2.0625 5.8125 2.82 5.8125 3.75C5.8125 4.0575 5.5575 4.3125 5.25 4.3125Z" fill="#787878"/>
<path d="M14.3925 13.3125C14.085 13.3125 13.83 13.0575 13.83 12.75C13.83 12.4425 14.085 12.1875 14.3925 12.1875C15.2475 12.1875 15.9375 11.49 15.9375 10.6425V6C15.9375 5.6925 16.1925 5.4375 16.5 5.4375C16.8075 5.4375 17.0625 5.6925 17.0625 6V10.6425C17.0625 12.1125 15.8625 13.3125 14.3925 13.3125Z" fill="#787878"/>
<path d="M16.5 6.56251H14.25C12.255 6.56251 11.4375 5.74501 11.4375 3.75001V1.50001C11.4375 1.27501 11.5725 1.06501 11.7825 0.982507C11.9925 0.892507 12.2325 0.945007 12.3975 1.10251L16.8975 5.60251C17.055 5.76001 17.1075 6.00751 17.0175 6.21751C16.935 6.42751 16.725 6.56251 16.5 6.56251ZM12.5625 2.85751V3.75001C12.5625 5.12251 12.8775 5.43751 14.25 5.43751H15.1425L12.5625 2.85751Z" fill="#787878"/>
</svg>
