<svg width="263" height="145" viewBox="0 0 263 145" fill="none" xmlns="http://www.w3.org/2000/svg">
<path d="M16.3047 7.02344C14.6641 7.02344 13.1953 7.32031 11.8984 7.91406C10.6172 8.50781 9.53125 9.36719 8.64062 10.4922C7.75 11.6016 7.07031 12.9531 6.60156 14.5469C6.13281 16.125 5.89844 17.9062 5.89844 19.8906C5.89844 22.5469 6.27344 24.8359 7.02344 26.7578C7.77344 28.6641 8.91406 30.1328 10.4453 31.1641C11.9766 32.1797 13.9141 32.6875 16.2578 32.6875C17.7109 32.6875 19.125 32.5469 20.5 32.2656C21.875 31.9844 23.2969 31.6016 24.7656 31.1172V35.8984C23.375 36.4453 21.9688 36.8438 20.5469 37.0938C19.125 37.3438 17.4844 37.4688 15.625 37.4688C12.125 37.4688 9.21875 36.7422 6.90625 35.2891C4.60938 33.8359 2.89062 31.7891 1.75 29.1484C0.625 26.5078 0.0625 23.4141 0.0625 19.8672C0.0625 17.2734 0.421875 14.8984 1.14062 12.7422C1.85938 10.5859 2.90625 8.72656 4.28125 7.16406C5.65625 5.58594 7.35156 4.375 9.36719 3.53125C11.3984 2.67187 13.7188 2.24219 16.3281 2.24219C18.0469 2.24219 19.7344 2.4375 21.3906 2.82812C23.0625 3.20312 24.6094 3.74219 26.0312 4.44531L24.0625 9.08594C22.875 8.52344 21.6328 8.03906 20.3359 7.63281C19.0391 7.22656 17.6953 7.02344 16.3047 7.02344ZM54.5312 23.9688C54.5312 26.125 54.25 28.0391 53.6875 29.7109C53.125 31.3828 52.3047 32.7969 51.2266 33.9531C50.1484 35.0938 48.8516 35.9688 47.3359 36.5781C45.8203 37.1719 44.1094 37.4688 42.2031 37.4688C40.4219 37.4688 38.7891 37.1719 37.3047 36.5781C35.8203 35.9688 34.5312 35.0938 33.4375 33.9531C32.3594 32.7969 31.5234 31.3828 30.9297 29.7109C30.3359 28.0391 30.0391 26.125 30.0391 23.9688C30.0391 21.1094 30.5312 18.6875 31.5156 16.7031C32.5156 14.7031 33.9375 13.1797 35.7812 12.1328C37.625 11.0859 39.8203 10.5625 42.3672 10.5625C44.7578 10.5625 46.8672 11.0859 48.6953 12.1328C50.5234 13.1797 51.9531 14.7031 52.9844 16.7031C54.0156 18.7031 54.5312 21.125 54.5312 23.9688ZM35.7109 23.9688C35.7109 25.8594 35.9375 27.4766 36.3906 28.8203C36.8594 30.1641 37.5781 31.1953 38.5469 31.9141C39.5156 32.6172 40.7656 32.9688 42.2969 32.9688C43.8281 32.9688 45.0781 32.6172 46.0469 31.9141C47.0156 31.1953 47.7266 30.1641 48.1797 28.8203C48.6328 27.4766 48.8594 25.8594 48.8594 23.9688C48.8594 22.0781 48.6328 20.4766 48.1797 19.1641C47.7266 17.8359 47.0156 16.8281 46.0469 16.1406C45.0781 15.4375 43.8203 15.0859 42.2734 15.0859C39.9922 15.0859 38.3281 15.8516 37.2812 17.3828C36.2344 18.9141 35.7109 21.1094 35.7109 23.9688ZM83.4766 11.0547V37H79.1406L78.3906 33.5078H78.0859C77.5391 34.3984 76.8438 35.1406 76 35.7344C75.1562 36.3125 74.2188 36.7422 73.1875 37.0234C72.1562 37.3203 71.0703 37.4688 69.9297 37.4688C67.9766 37.4688 66.3047 37.1406 64.9141 36.4844C63.5391 35.8125 62.4844 34.7812 61.75 33.3906C61.0156 32 60.6484 30.2031 60.6484 28V11.0547H66.1797V26.9688C66.1797 28.9844 66.5859 30.4922 67.3984 31.4922C68.2266 32.4922 69.5078 32.9922 71.2422 32.9922C72.9141 32.9922 74.2422 32.6484 75.2266 31.9609C76.2109 31.2734 76.9062 30.2578 77.3125 28.9141C77.7344 27.5703 77.9453 25.9219 77.9453 23.9688V11.0547H83.4766ZM104.898 10.5625C107.82 10.5625 110.094 11.3203 111.719 12.8359C113.359 14.3359 114.18 16.75 114.18 20.0781V37H108.672V21.1094C108.672 19.0938 108.258 17.5859 107.43 16.5859C106.602 15.5703 105.32 15.0625 103.586 15.0625C101.07 15.0625 99.3203 15.8359 98.3359 17.3828C97.3672 18.9297 96.8828 21.1719 96.8828 24.1094V37H91.375V11.0547H95.6641L96.4375 14.5703H96.7422C97.3047 13.6641 98 12.9219 98.8281 12.3438C99.6719 11.75 100.609 11.3047 101.641 11.0078C102.688 10.7109 103.773 10.5625 104.898 10.5625ZM131.547 33.0156C132.266 33.0156 132.977 32.9531 133.68 32.8281C134.383 32.6875 135.023 32.5234 135.602 32.3359V36.5078C134.992 36.7734 134.203 37 133.234 37.1875C132.266 37.375 131.258 37.4688 130.211 37.4688C128.742 37.4688 127.422 37.2266 126.25 36.7422C125.078 36.2422 124.148 35.3906 123.461 34.1875C122.773 32.9844 122.43 31.3203 122.43 29.1953V15.25H118.891V12.7891L122.688 10.8438L124.492 5.28906H127.961V11.0547H135.391V15.25H127.961V29.125C127.961 30.4375 128.289 31.4141 128.945 32.0547C129.602 32.6953 130.469 33.0156 131.547 33.0156ZM149.594 37.4688C146.5 37.4688 144.016 36.3438 142.141 34.0938C140.281 31.8281 139.352 28.4922 139.352 24.0859C139.352 19.6328 140.297 16.2656 142.188 13.9844C144.094 11.7031 146.602 10.5625 149.711 10.5625C151.023 10.5625 152.172 10.7422 153.156 11.1016C154.141 11.4453 154.984 11.9141 155.688 12.5078C156.406 13.1016 157.016 13.7656 157.516 14.5H157.773C157.695 14.0156 157.602 13.3203 157.492 12.4141C157.398 11.4922 157.352 10.6406 157.352 9.85938V0.53125H162.883V37H158.57L157.586 33.4609H157.352C156.883 34.2109 156.289 34.8906 155.57 35.5C154.867 36.0938 154.023 36.5703 153.039 36.9297C152.07 37.2891 150.922 37.4688 149.594 37.4688ZM151.141 32.9922C153.5 32.9922 155.164 32.3125 156.133 30.9531C157.102 29.5938 157.602 27.5547 157.633 24.8359V24.1094C157.633 21.2031 157.164 18.9766 156.227 17.4297C155.289 15.8672 153.578 15.0859 151.094 15.0859C149.109 15.0859 147.594 15.8906 146.547 17.5C145.516 19.0938 145 21.3203 145 24.1797C145 27.0391 145.516 29.2266 146.547 30.7422C147.594 32.2422 149.125 32.9922 151.141 32.9922ZM193.75 23.9688C193.75 26.125 193.469 28.0391 192.906 29.7109C192.344 31.3828 191.523 32.7969 190.445 33.9531C189.367 35.0938 188.07 35.9688 186.555 36.5781C185.039 37.1719 183.328 37.4688 181.422 37.4688C179.641 37.4688 178.008 37.1719 176.523 36.5781C175.039 35.9688 173.75 35.0938 172.656 33.9531C171.578 32.7969 170.742 31.3828 170.148 29.7109C169.555 28.0391 169.258 26.125 169.258 23.9688C169.258 21.1094 169.75 18.6875 170.734 16.7031C171.734 14.7031 173.156 13.1797 175 12.1328C176.844 11.0859 179.039 10.5625 181.586 10.5625C183.977 10.5625 186.086 11.0859 187.914 12.1328C189.742 13.1797 191.172 14.7031 192.203 16.7031C193.234 18.7031 193.75 21.125 193.75 23.9688ZM174.93 23.9688C174.93 25.8594 175.156 27.4766 175.609 28.8203C176.078 30.1641 176.797 31.1953 177.766 31.9141C178.734 32.6172 179.984 32.9688 181.516 32.9688C183.047 32.9688 184.297 32.6172 185.266 31.9141C186.234 31.1953 186.945 30.1641 187.398 28.8203C187.852 27.4766 188.078 25.8594 188.078 23.9688C188.078 22.0781 187.852 20.4766 187.398 19.1641C186.945 17.8359 186.234 16.8281 185.266 16.1406C184.297 15.4375 183.039 15.0859 181.492 15.0859C179.211 15.0859 177.547 15.8516 176.5 17.3828C175.453 18.9141 174.93 21.1094 174.93 23.9688ZM221.289 36.9766L218.008 24.9062C217.852 24.3125 217.664 23.5938 217.445 22.75C217.227 21.9062 217.008 21.0391 216.789 20.1484C216.57 19.2422 216.367 18.4062 216.18 17.6406C216.008 16.875 215.875 16.2812 215.781 15.8594H215.594C215.516 16.2812 215.391 16.875 215.219 17.6406C215.047 18.4062 214.852 19.2422 214.633 20.1484C214.414 21.0547 214.195 21.9375 213.977 22.7969C213.773 23.6562 213.586 24.3906 213.414 25L209.969 36.9766H203.922L196.656 11.0312H202.234L205.609 23.9219C205.828 24.7969 206.039 25.7422 206.242 26.7578C206.461 27.7734 206.648 28.7422 206.805 29.6641C206.961 30.5859 207.078 31.3438 207.156 31.9375H207.344C207.406 31.5156 207.492 30.9844 207.602 30.3438C207.711 29.6875 207.836 29.0078 207.977 28.3047C208.117 27.5859 208.258 26.9141 208.398 26.2891C208.539 25.6484 208.672 25.1328 208.797 24.7422L212.781 11.0312H218.805L222.625 24.7422C222.797 25.3359 222.984 26.0859 223.188 26.9922C223.391 27.8828 223.57 28.7812 223.727 29.6875C223.898 30.5781 224.008 31.3203 224.055 31.9141H224.242C224.305 31.3828 224.414 30.6641 224.57 29.7578C224.742 28.8359 224.938 27.8594 225.156 26.8281C225.375 25.7812 225.602 24.8125 225.836 23.9219L229.281 11.0312H234.766L227.453 36.9766H221.289ZM252.742 10.5625C255.664 10.5625 257.938 11.3203 259.562 12.8359C261.203 14.3359 262.023 16.75 262.023 20.0781V37H256.516V21.1094C256.516 19.0938 256.102 17.5859 255.273 16.5859C254.445 15.5703 253.164 15.0625 251.43 15.0625C248.914 15.0625 247.164 15.8359 246.18 17.3828C245.211 18.9297 244.727 21.1719 244.727 24.1094V37H239.219V11.0547H243.508L244.281 14.5703H244.586C245.148 13.6641 245.844 12.9219 246.672 12.3438C247.516 11.75 248.453 11.3047 249.484 11.0078C250.531 10.7109 251.617 10.5625 252.742 10.5625ZM128.5 50.2188C130.266 50.2188 131.812 50.5078 133.141 51.0859C134.484 51.6641 135.531 52.5078 136.281 53.6172C137.031 54.7109 137.406 56.0469 137.406 57.625C137.406 59.7344 136.75 61.5156 135.438 62.9688C134.125 64.4219 132.469 65.7188 130.469 66.8594L138.555 74.7344C139.32 73.6875 139.953 72.5391 140.453 71.2891C140.953 70.0234 141.383 68.6953 141.742 67.3047H147.438C146.953 69.2422 146.281 71.1562 145.422 73.0469C144.562 74.9219 143.477 76.6406 142.164 78.2031L149.125 85H142.07L138.602 81.6016C137.633 82.3828 136.594 83.0625 135.484 83.6406C134.391 84.2188 133.195 84.6719 131.898 85C130.602 85.3125 129.172 85.4688 127.609 85.4688C125.219 85.4688 123.156 85.0859 121.422 84.3203C119.688 83.5547 118.352 82.4609 117.414 81.0391C116.492 79.6016 116.031 77.8984 116.031 75.9297C116.031 74.2891 116.305 72.8828 116.852 71.7109C117.414 70.5234 118.211 69.4844 119.242 68.5938C120.273 67.6875 121.508 66.8281 122.945 66.0156C122.164 65.125 121.484 64.2578 120.906 63.4141C120.328 62.5703 119.883 61.7031 119.57 60.8125C119.273 59.9062 119.125 58.9375 119.125 57.9062C119.125 56.3125 119.516 54.9453 120.297 53.8047C121.078 52.6484 122.172 51.7656 123.578 51.1562C124.984 50.5312 126.625 50.2188 128.5 50.2188ZM126.203 69.3672C125.297 69.9453 124.516 70.5312 123.859 71.125C123.203 71.7031 122.695 72.3438 122.336 73.0469C121.992 73.75 121.82 74.5703 121.82 75.5078C121.82 77.1172 122.383 78.3906 123.508 79.3281C124.648 80.2656 126.117 80.7344 127.914 80.7344C129.492 80.7344 130.875 80.5 132.062 80.0312C133.266 79.5469 134.312 78.9453 135.203 78.2266L126.203 69.3672ZM128.406 54.5781C127.297 54.5781 126.336 54.8672 125.523 55.4453C124.727 56.0234 124.328 56.9219 124.328 58.1406C124.328 59.125 124.586 60.0547 125.102 60.9297C125.633 61.7891 126.367 62.7188 127.305 63.7188C128.945 62.8125 130.164 61.9219 130.961 61.0469C131.773 60.1719 132.18 59.1562 132.18 58C132.18 56.9062 131.812 56.0625 131.078 55.4688C130.344 54.875 129.453 54.5781 128.406 54.5781ZM42.7891 103.023C41.1484 103.023 39.6797 103.32 38.3828 103.914C37.1016 104.508 36.0156 105.367 35.125 106.492C34.2344 107.602 33.5547 108.953 33.0859 110.547C32.6172 112.125 32.3828 113.906 32.3828 115.891C32.3828 118.547 32.7578 120.836 33.5078 122.758C34.2578 124.664 35.3984 126.133 36.9297 127.164C38.4609 128.18 40.3984 128.688 42.7422 128.688C44.1953 128.688 45.6094 128.547 46.9844 128.266C48.3594 127.984 49.7812 127.602 51.25 127.117V131.898C49.8594 132.445 48.4531 132.844 47.0312 133.094C45.6094 133.344 43.9688 133.469 42.1094 133.469C38.6094 133.469 35.7031 132.742 33.3906 131.289C31.0938 129.836 29.375 127.789 28.2344 125.148C27.1094 122.508 26.5469 119.414 26.5469 115.867C26.5469 113.273 26.9062 110.898 27.625 108.742C28.3438 106.586 29.3906 104.727 30.7656 103.164C32.1406 101.586 33.8359 100.375 35.8516 99.5312C37.8828 98.6719 40.2031 98.2422 42.8125 98.2422C44.5312 98.2422 46.2188 98.4375 47.875 98.8281C49.5469 99.2031 51.0938 99.7422 52.5156 100.445L50.5469 105.086C49.3594 104.523 48.1172 104.039 46.8203 103.633C45.5234 103.227 44.1797 103.023 42.7891 103.023ZM81.0156 119.969C81.0156 122.125 80.7344 124.039 80.1719 125.711C79.6094 127.383 78.7891 128.797 77.7109 129.953C76.6328 131.094 75.3359 131.969 73.8203 132.578C72.3047 133.172 70.5938 133.469 68.6875 133.469C66.9062 133.469 65.2734 133.172 63.7891 132.578C62.3047 131.969 61.0156 131.094 59.9219 129.953C58.8438 128.797 58.0078 127.383 57.4141 125.711C56.8203 124.039 56.5234 122.125 56.5234 119.969C56.5234 117.109 57.0156 114.688 58 112.703C59 110.703 60.4219 109.18 62.2656 108.133C64.1094 107.086 66.3047 106.562 68.8516 106.562C71.2422 106.562 73.3516 107.086 75.1797 108.133C77.0078 109.18 78.4375 110.703 79.4688 112.703C80.5 114.703 81.0156 117.125 81.0156 119.969ZM62.1953 119.969C62.1953 121.859 62.4219 123.477 62.875 124.82C63.3438 126.164 64.0625 127.195 65.0312 127.914C66 128.617 67.25 128.969 68.7812 128.969C70.3125 128.969 71.5625 128.617 72.5312 127.914C73.5 127.195 74.2109 126.164 74.6641 124.82C75.1172 123.477 75.3438 121.859 75.3438 119.969C75.3438 118.078 75.1172 116.477 74.6641 115.164C74.2109 113.836 73.5 112.828 72.5312 112.141C71.5625 111.438 70.3047 111.086 68.7578 111.086C66.4766 111.086 64.8125 111.852 63.7656 113.383C62.7188 114.914 62.1953 117.109 62.1953 119.969ZM109.961 107.055V133H105.625L104.875 129.508H104.57C104.023 130.398 103.328 131.141 102.484 131.734C101.641 132.312 100.703 132.742 99.6719 133.023C98.6406 133.32 97.5547 133.469 96.4141 133.469C94.4609 133.469 92.7891 133.141 91.3984 132.484C90.0234 131.812 88.9688 130.781 88.2344 129.391C87.5 128 87.1328 126.203 87.1328 124V107.055H92.6641V122.969C92.6641 124.984 93.0703 126.492 93.8828 127.492C94.7109 128.492 95.9922 128.992 97.7266 128.992C99.3984 128.992 100.727 128.648 101.711 127.961C102.695 127.273 103.391 126.258 103.797 124.914C104.219 123.57 104.43 121.922 104.43 119.969V107.055H109.961ZM131.383 106.562C134.305 106.562 136.578 107.32 138.203 108.836C139.844 110.336 140.664 112.75 140.664 116.078V133H135.156V117.109C135.156 115.094 134.742 113.586 133.914 112.586C133.086 111.57 131.805 111.062 130.07 111.062C127.555 111.062 125.805 111.836 124.82 113.383C123.852 114.93 123.367 117.172 123.367 120.109V133H117.859V107.055H122.148L122.922 110.57H123.227C123.789 109.664 124.484 108.922 125.312 108.344C126.156 107.75 127.094 107.305 128.125 107.008C129.172 106.711 130.258 106.562 131.383 106.562ZM158.031 129.016C158.75 129.016 159.461 128.953 160.164 128.828C160.867 128.688 161.508 128.523 162.086 128.336V132.508C161.477 132.773 160.688 133 159.719 133.188C158.75 133.375 157.742 133.469 156.695 133.469C155.227 133.469 153.906 133.227 152.734 132.742C151.562 132.242 150.633 131.391 149.945 130.188C149.258 128.984 148.914 127.32 148.914 125.195V111.25H145.375V108.789L149.172 106.844L150.977 101.289H154.445V107.055H161.875V111.25H154.445V125.125C154.445 126.438 154.773 127.414 155.43 128.055C156.086 128.695 156.953 129.016 158.031 129.016ZM165.109 122.453V117.789H177.203V122.453H165.109ZM205.445 107.055V133H201.109L200.359 129.508H200.055C199.508 130.398 198.812 131.141 197.969 131.734C197.125 132.312 196.188 132.742 195.156 133.023C194.125 133.32 193.039 133.469 191.898 133.469C189.945 133.469 188.273 133.141 186.883 132.484C185.508 131.812 184.453 130.781 183.719 129.391C182.984 128 182.617 126.203 182.617 124V107.055H188.148V122.969C188.148 124.984 188.555 126.492 189.367 127.492C190.195 128.492 191.477 128.992 193.211 128.992C194.883 128.992 196.211 128.648 197.195 127.961C198.18 127.273 198.875 126.258 199.281 124.914C199.703 123.57 199.914 121.922 199.914 119.969V107.055H205.445ZM226.656 106.562C229.734 106.562 232.203 107.688 234.062 109.938C235.938 112.188 236.875 115.531 236.875 119.969C236.875 122.906 236.438 125.383 235.562 127.398C234.703 129.398 233.492 130.914 231.93 131.945C230.383 132.961 228.578 133.469 226.516 133.469C225.203 133.469 224.062 133.297 223.094 132.953C222.125 132.609 221.297 132.164 220.609 131.617C219.922 131.055 219.344 130.445 218.875 129.789H218.547C218.625 130.414 218.695 131.109 218.758 131.875C218.836 132.625 218.875 133.312 218.875 133.938V144.508H213.344V107.055H217.844L218.617 110.641H218.875C219.359 109.906 219.945 109.227 220.633 108.602C221.336 107.977 222.18 107.484 223.164 107.125C224.164 106.75 225.328 106.562 226.656 106.562ZM225.18 111.062C223.664 111.062 222.445 111.367 221.523 111.977C220.617 112.57 219.953 113.469 219.531 114.672C219.125 115.875 218.906 117.383 218.875 119.195V119.969C218.875 121.891 219.07 123.523 219.461 124.867C219.867 126.195 220.531 127.211 221.453 127.914C222.391 128.602 223.656 128.945 225.25 128.945C226.594 128.945 227.703 128.578 228.578 127.844C229.469 127.109 230.133 126.062 230.57 124.703C231.008 123.344 231.227 121.742 231.227 119.898C231.227 117.102 230.727 114.93 229.727 113.383C228.742 111.836 227.227 111.062 225.18 111.062Z" fill="white"/>
</svg>
