<svg width="20" height="20" viewBox="0 0 20 20" fill="none" xmlns="http://www.w3.org/2000/svg">
<path d="M9.99999 18.4C9.74999 18.4 9.49999 18.3417 9.29166 18.225C7.73332 17.375 4.99166 16.475 3.27499 16.25L3.03332 16.2167C1.94166 16.0833 1.04166 15.0583 1.04166 13.95V3.88332C1.04166 3.22499 1.29999 2.62499 1.77499 2.19165C2.24999 1.75832 2.86666 1.54999 3.51666 1.60832C5.34999 1.74999 8.11666 2.66665 9.68332 3.64999L9.88332 3.76665C9.94166 3.79999 10.0667 3.79999 10.1167 3.77499L10.25 3.69165C11.8167 2.70832 14.5833 1.77499 16.425 1.61665C16.4417 1.61665 16.5083 1.61665 16.525 1.61665C17.1333 1.55832 17.7583 1.77499 18.225 2.20832C18.7 2.64165 18.9583 3.24165 18.9583 3.89999V13.9583C18.9583 15.075 18.0583 16.0917 16.9583 16.225L16.6833 16.2583C14.9667 16.4833 12.2167 17.3917 10.6917 18.2333C10.4917 18.35 10.25 18.4 9.99999 18.4ZM3.31666 2.84999C3.04999 2.84999 2.80832 2.94165 2.61666 3.11665C2.40832 3.30832 2.29166 3.58332 2.29166 3.88332V13.95C2.29166 14.4417 2.71666 14.9167 3.19166 14.9833L3.44166 15.0167C5.31666 15.2667 8.19166 16.2083 9.85832 17.1167C9.93332 17.15 10.0417 17.1583 10.0833 17.1417C11.75 16.2167 14.6417 15.2667 16.525 15.0167L16.8083 14.9833C17.2833 14.925 17.7083 14.4417 17.7083 13.95V3.89165C17.7083 3.58332 17.5917 3.31665 17.3833 3.11665C17.1667 2.92499 16.8917 2.83332 16.5833 2.84999C16.5667 2.84999 16.5 2.84999 16.4833 2.84999C14.8917 2.99165 12.325 3.84999 10.925 4.72499L10.7917 4.81665C10.3333 5.09999 9.68332 5.09999 9.24166 4.82499L9.04166 4.70832C7.61666 3.83332 5.04999 2.98332 3.41666 2.84999C3.38332 2.84999 3.34999 2.84999 3.31666 2.84999Z" fill="#262626"/>
<path d="M10 17.7C9.65833 17.7 9.375 17.4167 9.375 17.075V4.57501C9.375 4.23335 9.65833 3.95001 10 3.95001C10.3417 3.95001 10.625 4.23335 10.625 4.57501V17.075C10.625 17.425 10.3417 17.7 10 17.7Z" fill="#262626"/>
<path d="M6.45834 7.70001H4.58334C4.24168 7.70001 3.95834 7.41668 3.95834 7.07501C3.95834 6.73335 4.24168 6.45001 4.58334 6.45001H6.45834C6.80001 6.45001 7.08334 6.73335 7.08334 7.07501C7.08334 7.41668 6.80001 7.70001 6.45834 7.70001Z" fill="#262626"/>
<path d="M7.08334 10.2H4.58334C4.24168 10.2 3.95834 9.91668 3.95834 9.57501C3.95834 9.23335 4.24168 8.95001 4.58334 8.95001H7.08334C7.42501 8.95001 7.70834 9.23335 7.70834 9.57501C7.70834 9.91668 7.42501 10.2 7.08334 10.2Z" fill="#262626"/>
</svg>
