<svg width="13" height="13" viewBox="0 0 13 13" fill="none" xmlns="http://www.w3.org/2000/svg">
<path d="M2.7301 11.6234L2.73012 11.6234L4.35809 11.2164C4.37428 11.2124 4.39043 11.2084 4.40653 11.2044C4.62531 11.15 4.83562 11.0978 5.02707 10.9894C5.21852 10.881 5.37153 10.7275 5.53071 10.5679C5.54243 10.5561 5.55418 10.5444 5.56598 10.5325L10.7993 5.29926L10.8148 5.28377C10.9965 5.10203 11.1574 4.94118 11.28 4.79707C11.4106 4.64364 11.5322 4.47082 11.6039 4.25518L11.0346 4.06574L11.6039 4.25518C11.7131 3.92723 11.7131 3.57277 11.6039 3.24482L11.0547 3.42757L11.6039 3.24482C11.5322 3.02918 11.4106 2.85636 11.28 2.70293C11.1574 2.55882 10.9965 2.39796 10.8147 2.2162L10.7993 2.20074L10.7838 2.18524C10.602 2.00348 10.4412 1.84262 10.2971 1.71998C10.1436 1.58941 9.97082 1.46782 9.75518 1.39606C9.42723 1.28693 9.07277 1.28693 8.74482 1.39606C8.52918 1.46782 8.35636 1.58941 8.20293 1.71998C8.05882 1.84262 7.89796 2.0035 7.7162 2.18527L7.70073 2.20074L2.46745 7.43402L2.46745 7.43402C2.45564 7.44583 2.44386 7.45758 2.4321 7.4693C2.27248 7.62847 2.11904 7.78148 2.01064 7.97293C1.90225 8.16438 1.84999 8.37468 1.79562 8.59345C1.79162 8.60956 1.78761 8.62571 1.78356 8.64191L1.37003 10.296C1.36762 10.3057 1.36518 10.3154 1.36272 10.3252C1.32411 10.4793 1.28044 10.6535 1.26593 10.8018C1.24978 10.9669 1.25127 11.2662 1.49255 11.5074C1.73383 11.7487 2.03307 11.7502 2.19819 11.7341C2.34646 11.7196 2.52072 11.6759 2.67479 11.6373C2.6846 11.6348 2.69433 11.6324 2.70396 11.63L2.70397 11.63L2.7301 11.6234Z" stroke="#8C8C8C" stroke-width="1.2"/>
</svg>
