<svg width="21" height="20" viewBox="0 0 21 20" fill="none" xmlns="http://www.w3.org/2000/svg">
<path d="M6.33335 8.95832H4.66669C2.65002 8.95832 1.54169 7.84999 1.54169 5.83332V4.16666C1.54169 2.14999 2.65002 1.04166 4.66669 1.04166H6.33335C8.35002 1.04166 9.45835 2.14999 9.45835 4.16666V5.83332C9.45835 7.84999 8.35002 8.95832 6.33335 8.95832ZM4.66669 2.29166C3.35002 2.29166 2.79169 2.84999 2.79169 4.16666V5.83332C2.79169 7.14999 3.35002 7.70832 4.66669 7.70832H6.33335C7.65002 7.70832 8.20835 7.14999 8.20835 5.83332V4.16666C8.20835 2.84999 7.65002 2.29166 6.33335 2.29166H4.66669Z" fill="#262626"/>
<path d="M16.3334 8.95832H14.6667C12.65 8.95832 11.5417 7.84999 11.5417 5.83332V4.16666C11.5417 2.14999 12.65 1.04166 14.6667 1.04166H16.3334C18.35 1.04166 19.4584 2.14999 19.4584 4.16666V5.83332C19.4584 7.84999 18.35 8.95832 16.3334 8.95832ZM14.6667 2.29166C13.35 2.29166 12.7917 2.84999 12.7917 4.16666V5.83332C12.7917 7.14999 13.35 7.70832 14.6667 7.70832H16.3334C17.65 7.70832 18.2084 7.14999 18.2084 5.83332V4.16666C18.2084 2.84999 17.65 2.29166 16.3334 2.29166H14.6667Z" fill="#262626"/>
<path d="M16.3334 18.9583H14.6667C12.65 18.9583 11.5417 17.85 11.5417 15.8333V14.1667C11.5417 12.15 12.65 11.0417 14.6667 11.0417H16.3334C18.35 11.0417 19.4584 12.15 19.4584 14.1667V15.8333C19.4584 17.85 18.35 18.9583 16.3334 18.9583ZM14.6667 12.2917C13.35 12.2917 12.7917 12.85 12.7917 14.1667V15.8333C12.7917 17.15 13.35 17.7083 14.6667 17.7083H16.3334C17.65 17.7083 18.2084 17.15 18.2084 15.8333V14.1667C18.2084 12.85 17.65 12.2917 16.3334 12.2917H14.6667Z" fill="#262626"/>
<path d="M6.33335 18.9583H4.66669C2.65002 18.9583 1.54169 17.85 1.54169 15.8333V14.1667C1.54169 12.15 2.65002 11.0417 4.66669 11.0417H6.33335C8.35002 11.0417 9.45835 12.15 9.45835 14.1667V15.8333C9.45835 17.85 8.35002 18.9583 6.33335 18.9583ZM4.66669 12.2917C3.35002 12.2917 2.79169 12.85 2.79169 14.1667V15.8333C2.79169 17.15 3.35002 17.7083 4.66669 17.7083H6.33335C7.65002 17.7083 8.20835 17.15 8.20835 15.8333V14.1667C8.20835 12.85 7.65002 12.2917 6.33335 12.2917H4.66669Z" fill="#262626"/>
</svg>
