<svg width="20" height="20" viewBox="0 0 20 20" fill="none" xmlns="http://www.w3.org/2000/svg">
<path d="M12.5 10.7917H6.66666C6.32499 10.7917 6.04166 10.5083 6.04166 10.1667C6.04166 9.82499 6.32499 9.54166 6.66666 9.54166H12.5C12.8417 9.54166 13.125 9.82499 13.125 10.1667C13.125 10.5083 12.8417 10.7917 12.5 10.7917Z" fill="#262626"/>
<path d="M10.3167 14.125H6.66666C6.32499 14.125 6.04166 13.8417 6.04166 13.5C6.04166 13.1583 6.32499 12.875 6.66666 12.875H10.3167C10.6583 12.875 10.9417 13.1583 10.9417 13.5C10.9417 13.8417 10.6583 14.125 10.3167 14.125Z" fill="#262626"/>
<path d="M11.6667 5.62499H8.33332C7.53332 5.62499 6.04166 5.62499 6.04166 3.33332C6.04166 1.04166 7.53332 1.04166 8.33332 1.04166H11.6667C12.4667 1.04166 13.9583 1.04166 13.9583 3.33332C13.9583 4.13332 13.9583 5.62499 11.6667 5.62499ZM8.33332 2.29166C7.50832 2.29166 7.29166 2.29166 7.29166 3.33332C7.29166 4.37499 7.50832 4.37499 8.33332 4.37499H11.6667C12.7083 4.37499 12.7083 4.15832 12.7083 3.33332C12.7083 2.29166 12.4917 2.29166 11.6667 2.29166H8.33332Z" fill="#262626"/>
<path d="M12.5 18.9583H7.5C2.81667 18.9583 1.875 16.8083 1.875 13.3333V8.33335C1.875 4.53335 3.25 2.90835 6.63333 2.73335C6.96667 2.71668 7.275 2.97501 7.29167 3.32501C7.30833 3.67501 7.04167 3.95835 6.7 3.97501C4.33333 4.10835 3.125 4.81668 3.125 8.33335V13.3333C3.125 16.4167 3.73333 17.7083 7.5 17.7083H12.5C16.2667 17.7083 16.875 16.4167 16.875 13.3333V8.33335C16.875 4.81668 15.6667 4.10835 13.3 3.97501C12.9583 3.95835 12.6917 3.65835 12.7083 3.31668C12.725 2.97501 13.025 2.70835 13.3667 2.72501C16.75 2.90835 18.125 4.53335 18.125 8.32501V13.325C18.125 16.8083 17.1833 18.9583 12.5 18.9583Z" fill="#262626"/>
</svg>
