<svg width="20" height="20" viewBox="0 0 20 20" fill="none" xmlns="http://www.w3.org/2000/svg">
<path d="M6.55834 17.7333C5.90001 17.7333 5.27501 17.575 4.72501 17.2583C3.42501 16.5083 2.70834 14.9833 2.70834 12.975V7.03333C2.70834 5.01667 3.42501 3.5 4.72501 2.75C6.02501 2 7.70001 2.14167 9.45001 3.15L14.5917 6.11667C16.3333 7.125 17.3 8.50833 17.3 10.0083C17.3 11.5083 16.3417 12.8917 14.5917 13.9L9.45001 16.8667C8.44168 17.4417 7.45834 17.7333 6.55834 17.7333ZM6.55834 3.51667C6.10834 3.51667 5.70834 3.61667 5.35001 3.825C4.45001 4.34167 3.95834 5.48333 3.95834 7.03333V12.9667C3.95834 14.5167 4.45001 15.65 5.35001 16.175C6.25001 16.7 7.48334 16.55 8.82501 15.775L13.9667 12.8083C15.3083 12.0333 16.05 11.0417 16.05 10C16.05 8.95833 15.3083 7.96667 13.9667 7.19167L8.82501 4.225C8.00834 3.75833 7.24168 3.51667 6.55834 3.51667Z" fill="white"/>
</svg>
